<svg id="Layer_1" enable-background="new 0 0 512 512" height="512" viewBox="0 0 512 512" width="512" xmlns="http://www.w3.org/2000/svg"><g><path d="m260.51 38.971 43.042-37.048c3.461-2.979 8.809-1.844 10.761 2.285l24.336 51.464c1.461 3.089 4.959 4.648 8.233 3.668l54.332-16.262c4.368-1.307 8.783 1.897 8.894 6.454l1.396 57.017c.083 3.407 2.637 6.245 6.016 6.686l56.268 7.35c4.511.589 7.233 5.299 5.492 9.501l-21.827 52.696c-1.301 3.141-.125 6.762 2.773 8.539l48.475 29.734c3.872 2.375 4.441 7.776 1.148 10.905l-41.275 39.221c-2.463 2.341-2.86 6.124-.937 8.925l32.259 46.991c2.572 3.747.891 8.914-3.393 10.431l-53.545 18.951c-3.208 1.136-5.113 4.437-4.49 7.783l10.44 56.087c.833 4.477-2.814 8.523-7.353 8.157l-56.532-4.561c-3.402-.274-6.495 1.974-7.283 5.295l-13.159 55.45c-1.054 4.44-6.044 6.66-10.047 4.468l-49.769-27.249c-3-1.642-6.75-.845-8.821 1.876l-34.442 45.239c-2.767 3.634-8.235 3.634-11.002 0l-34.442-45.239c-2.072-2.721-5.822-3.519-8.821-1.876l-49.769 27.249c-4.003 2.192-8.994-.028-10.047-4.468l-13.159-55.45c-.788-3.321-3.881-5.569-7.283-5.295l-56.532 4.561c-4.539.366-8.186-3.68-7.353-8.157l10.44-56.087c.623-3.346-1.282-6.647-4.49-7.783l-53.545-18.951c-4.285-1.516-5.966-6.684-3.393-10.431l32.259-46.991c1.923-2.801 1.526-6.584-.937-8.925l-41.276-39.219c-3.293-3.129-2.725-8.53 1.148-10.905l48.475-29.734c2.898-1.778 4.074-5.398 2.773-8.539l-21.828-52.697c-1.741-4.203.982-8.912 5.492-9.501l56.268-7.35c3.379-.441 5.933-3.279 6.016-6.686l1.396-57.017c.112-4.558 4.527-7.762 8.894-6.454l54.332 16.262c3.274.98 6.772-.579 8.233-3.668l24.336-51.464c1.952-4.128 7.3-5.264 10.761-2.285l43.042 37.048c2.592 2.231 6.428 2.231 9.02-.001z" fill="#ff712f"/><path d="m261.501 509.027 34.442-45.239c2.072-2.721 5.822-3.519 8.821-1.876l49.769 27.249c4.003 2.191 8.994-.028 10.047-4.468l13.159-55.45c.788-3.321 3.881-5.569 7.283-5.295l56.532 4.56c4.539.366 8.186-3.68 7.353-8.157l-10.44-56.087c-.623-3.346 1.282-6.647 4.49-7.783l53.545-18.951c4.285-1.516 5.966-6.684 3.393-10.431l-32.259-46.991c-1.923-2.801-1.526-6.585.937-8.925l41.275-39.221c3.293-3.129 2.725-8.53-1.148-10.905l-48.475-29.734c-2.898-1.778-4.074-5.398-2.773-8.539l21.827-52.697c1.741-4.203-.982-8.912-5.492-9.501l-56.268-7.35c-3.379-.441-5.933-3.279-6.016-6.686l-1.396-57.016c-.112-4.558-4.527-7.762-8.894-6.454l-54.331 16.26c-3.274.98-6.772-.579-8.233-3.668l-24.336-51.465c-1.952-4.128-7.299-5.264-10.761-2.284l-43.042 37.048c-1.296 1.116-2.903 1.674-4.51 1.674v471.107c2.059.001 4.118-.908 5.501-2.725z" fill="#ff4b00"/><circle cx="256" cy="255.462" fill="#ffef31" r="144.028"/><path d="m400.028 255.462c0-79.545-64.484-144.028-144.028-144.028v288.057c79.545 0 144.028-64.484 144.028-144.029z" fill="#ffd400"/></g></svg>